<svg viewBox="0 0 18 20" fill="currentColor" xmlns="http://www.w3.org/2000/svg"><path d="M17.4001 5.09998C17.3001 4.99998 17.2001 4.99998 17.0001 4.99998C16.7001 4.99998 16.5001 4.99998 16.2001 4.89998C14.5001 4.49998 13.3001 3.19998 13.2001 1.49998V1.09998C13.2001 0.799976 13.0001 0.599976 12.7001 0.599976H9.60007C9.30007 0.599976 9.10007 0.799976 9.10007 1.09998V13.6C9.10007 14.8 8.10007 15.7 7.00007 15.7C6.30007 15.7 5.70007 15.4 5.30007 14.9C4.60007 14 4.80007 12.6 5.70007 11.9C6.10007 11.6 6.50007 11.6 7.30007 11.6C7.40007 11.6 7.60007 11.6 7.70007 11.5C7.80007 11.4 7.90007 11.3 7.90007 11.1V7.79998C7.90007 7.59998 7.70007 7.29998 7.50007 7.29998C5.90007 7.09998 4.30007 7.49998 3.10007 8.49998C2.00007 9.49998 1.20007 10.9 1.00007 12.6C0.700067 14.5 1.40007 16.5 2.70007 17.8C3.90007 19.1 5.60007 19.7 7.20007 19.7C8.80007 19.7 10.4001 19.1 11.6001 17.9C12.8001 16.7 13.5001 15.1 13.5001 13.4V7.89998C14.7001 8.49998 16.0001 8.89997 17.3001 8.89997C17.6001 8.89997 17.8001 8.69998 17.8001 8.39998V5.39998C17.6001 5.29998 17.5001 5.19998 17.4001 5.09998Z"/></svg>