<svg xmlns="http://www.w3.org/2000/svg" viewBox="0 0 564.91 205.16">
<defs>
    <style>.cls-1{fill:#fff;}</style>
</defs>
<path class="cls-1" d="M255.58,297c-5.08,6-7.64,9.9-7.64,13.52a4.62,4.62,0,0,0,4.69,4.92c1.5.08,3.46-1.48,3.46-1.48a7.3,7.3,0,0,1-.11,3.21c-.9,2.89-2.65,3.61-4.41,3.61s-2.92-.38-3.49-.95c.13.49.28,2,3.22,2,.15,1.11-1.41,2.3-2.68,2.3-1.61,0-3.92-.76-4.5-2.6V309.9c2.13-4.77,3-10.91,3.25-14.51s1.68-36.91,1.68-36.91,13.26,8.41,13.26,21.73C262.31,285.86,260.1,291.62,255.58,297Zm-.3-64.66a3,3,0,0,0,.63,2.12l.14.15c.8.89,1,1.12,1,1.72a1.35,1.35,0,0,1-1.39,1.38c-.9,0-1.11-.29-1.53-1.42a3.31,3.31,0,0,0-6.47,1,3.29,3.29,0,0,0,3.32,3.33,2.75,2.75,0,0,0,1.67-.45.87.87,0,0,1,.48-.18.59.59,0,0,1,.46.24,1.63,1.63,0,0,1,.26,1.31c-.27,1.43-3,3.64-6,3.64a7.42,7.42,0,0,1-7.28-7c-1.74,4.13-5.59,5-8.25,5a8.37,8.37,0,0,1-8.63-8.06,3,3,0,0,1,.7-2.25s.17-.07.42.14l.27.26a7.2,7.2,0,0,0,4.77,2.26,5.13,5.13,0,0,0,5.22-5.14,5,5,0,0,0-5.19-5.2,5.71,5.71,0,0,0-4.18,2c-.31.31-.64.64-.82.64a1.18,1.18,0,0,1-.91-.4,1,1,0,0,1-.28-.72s0-.1,0-.15a2,2,0,0,1,.63-.84A4.91,4.91,0,0,0,226,222a4.53,4.53,0,1,0-9.05,0,4.94,4.94,0,0,0,1.67,3.69c.33.32.61.61.64.84a.81.81,0,0,1,0,.15,1.07,1.07,0,0,1-.27.72,1.23,1.23,0,0,1-.92.4c-.17,0-.5-.33-.82-.64a5.73,5.73,0,0,0-4.18-2,5,5,0,0,0-5.2,5.2,5.13,5.13,0,0,0,5.22,5.14,7.21,7.21,0,0,0,4.78-2.26l.28-.26c.23-.21.36-.15.41-.14a2.93,2.93,0,0,1,.7,2.25,8.38,8.38,0,0,1-8.64,8.06c-2.66,0-6.51-.88-8.24-5a7.42,7.42,0,0,1-7.28,7c-3,0-5.75-2.21-6-3.64a1.59,1.59,0,0,1,.26-1.31.57.57,0,0,1,.44-.24.87.87,0,0,1,.49.18,2.79,2.79,0,0,0,1.68.45,3.3,3.3,0,0,0,3.32-3.33,3.32,3.32,0,0,0-6.48-1c-.41,1.13-.62,1.42-1.52,1.42a1.36,1.36,0,0,1-1.4-1.38c0-.6.19-.83,1-1.72l.14-.15a2.92,2.92,0,0,0,.63-2.12,4.2,4.2,0,0,0-4.26-4.21c-2,0-4.74,1.91-4.74,1.91L188,248.76a197.22,197.22,0,0,1,66.93,0L264.28,230s-2.75-1.91-4.73-1.91A4.21,4.21,0,0,0,255.28,232.3Zm-33.82,24.47a174.82,174.82,0,0,1,24.39,1.46c-.11,2.64-1,24.15-1.09,30.19a124.58,124.58,0,0,1-1.33,14.06c-1.41,7-7.61,18.78-22,18.78s-20.57-11.81-22-18.78a125.15,125.15,0,0,1-1.34-14.06c-.09-6-1-27.55-1.08-30.19A174.82,174.82,0,0,1,221.46,256.77ZM207,263.52c0,.26.32.46,1.06.65a15.53,15.53,0,0,1,7,3.73,11.68,11.68,0,0,1,3.35,5.93c.15.75.37,1.11.67,1.11s.51-.33.72-1a7.66,7.66,0,0,0-1.88-7.71c-2.74-3.08-7.05-3.32-8.31-3.32a12,12,0,0,0-1.53.11C207.39,263.1,207,263.27,207,263.52Zm1.09,12.36c4.22,0,6.74-1.39,6.74-2.74,0-1.19-2.32-4.65-6.73-4.65a5.83,5.83,0,0,0-3.75,1.07c-.42.32-.61.68-.52.95s.22.34.7.34a2.37,2.37,0,0,1,2.3,2.25,1.25,1.25,0,0,1-1.27,1.4c-.49,0-.91.28-.94.61,0,.09,0,.41.53.51A14.23,14.23,0,0,0,208.11,275.88Zm19.6,32.21a.61.61,0,0,0-.63-.39H215.84a.6.6,0,0,0-.64.39.62.62,0,0,0,.28.69c.37.26,2.69,1.81,3.18,2.11a1.8,1.8,0,0,0,1.18.31h3.22a1.81,1.81,0,0,0,1.19-.31c.51-.31,2.82-1.86,3.18-2.11A.65.65,0,0,0,227.71,308.09Zm2.58-3.88-1.94-.94c-1.43-.69-3.06-1.48-3.59-1.72a2.2,2.2,0,0,0-1.19-.26H219.3a2.16,2.16,0,0,0-1.19.26c-.84.38-4.35,2.08-5.53,2.66-.4.19-.62.51-.55.83a.62.62,0,0,0,.68.43h17.45a.62.62,0,0,0,.67-.43A.78.78,0,0,0,230.29,304.21Zm12.78-31.07c0-1.19-2.31-4.65-6.73-4.65a5.83,5.83,0,0,0-3.75,1.07c-.41.31-.62.68-.53.95s.22.34.7.34a2.38,2.38,0,0,1,2.31,2.25,1.25,1.25,0,0,1-1.26,1.4c-.49,0-.92.28-.95.61,0,.09,0,.41.53.51a14.07,14.07,0,0,0,2.93.26C240.55,275.88,243.07,274.49,243.07,273.14Zm-21.6,18.42a2.59,2.59,0,0,0-1.74.61c-.83.7-2.94,2.52-3.23,2.88a.57.57,0,0,0-.15.62c.07.17.29.38.9.38h11.23c.42,0,.7-.12.78-.34s0-.42-.29-.67c-.64-.59-2.61-2.48-2.93-2.79V275.47c0-4.78,1.07-9.65,9-9.65h4.51a6,6,0,0,0,4.74-2.71l.13-.21h-11c-5.55,0-9.75,4.54-9.75,10.56v16.71c0,1-.38,1.39-1.22,1.39Zm32.3-40.48a200.47,200.47,0,0,0-64.61,0l2.58,5.18s10.06-2.34,29.72-2.34,29.73,2.34,29.73,2.34Zm195.45,28.37a19.08,19.08,0,0,0,14.32-6.22l-5.62-5.78a11.14,11.14,0,0,1-8.7,4c-6.37,0-10.87-4.8-10.87-11.32s4.5-11.32,10.87-11.32a11.17,11.17,0,0,1,8.7,4l5.62-5.77a19.37,19.37,0,1,0-14.32,32.46ZM241.81,237a3.44,3.44,0,1,0-3.45-3.44A3.45,3.45,0,0,0,241.81,237Zm-43,84.46V309.9c-2.15-4.77-3-10.92-3.27-14.51s-1.66-36.91-1.66-36.91-13.28,8.41-13.28,21.73c0,5.65,2.23,11.41,6.74,16.76,5.06,6,7.64,9.9,7.64,13.51a4.61,4.61,0,0,1-4.69,4.91c-1.51.09-3.46-1.47-3.46-1.47a7.22,7.22,0,0,0,.1,3.21c.92,2.89,2.65,3.61,4.43,3.61a5,5,0,0,0,3.48-.95c-.13.5-.28,2-3.22,2-.16,1.11,1.41,2.3,2.68,2.3C195.91,324.1,198.22,323.34,198.81,321.5ZM201.12,237a3.44,3.44,0,1,0-3.46-3.44A3.44,3.44,0,0,0,201.12,237ZM241.23,333v-18c.11,0-8.38,9.65-19.77,9.65a25.08,25.08,0,0,1-19.77-9.9V333a13.37,13.37,0,0,1-3.68,9.48l5.82,6.52h35.26l5.81-6.52A13.38,13.38,0,0,1,241.23,333Zm285.83-92.19a14.17,14.17,0,0,0-10.49,4.13V226.51h-8.24v52.34h8.24V255.24c1.43-4.35,4.65-6.61,8.92-6.61A8.31,8.31,0,0,1,534,257v21.82h8.25v-22C542.29,247.21,536.37,240.76,527.06,240.76Zm-24.53.6h-9.75l-15,16.95v-31.8h-8.25v52.34h8.25V260.11l16.49,18.74H504.4l-17.46-19.72Zm85.28,18.75a19.42,19.42,0,1,1-19.42-19.35A19,19,0,0,1,587.81,260.11Zm-8.47,0c0-6.53-4.58-11.48-11-11.48s-10.94,5-10.94,11.48,4.49,11.47,10.94,11.47S579.34,266.63,579.34,260.11ZM307.4,202.24c.1,4.66.89,46.27-4.51,72.88-9.3,45.82-35.39,87.15-77.53,122.83l-4,3.36-4-3.36c-42.16-35.69-68.24-77-77.53-122.83-5.65-27.88-4.56-71.16-4.51-73l.17-6H307.26Zm-6.41.32H141.77c-.09,3.59-1,44.93,4.39,71.28,9,44.32,34.29,84.38,75.22,119.08,40.92-34.69,66.23-74.76,75.23-119.08C301.8,248.27,301.11,207.9,301,202.56Zm389.47,54.76L687.33,256c-4.88-1.88-5.45-3.7-5.45-4.91,0-2,2.4-3.34,4.71-3.34a7.71,7.71,0,0,1,6.08,2.81l.55.57,5.51-4.76-.54-.6a14.86,14.86,0,0,0-11.61-5c-6.26,0-12.74,3.9-12.74,10.42,0,5,3.21,8.81,9.55,11.33l3.15,1.23c4.05,1.62,5.55,3,5.55,5.15,0,1.66-1.91,3.38-5.1,3.38h-.43a12.16,12.16,0,0,1-8.25-3.84l-.54-.63L671.88,273l.67.61c4.46,4.06,8.76,6,14,6,8.91,0,13.58-5.61,13.58-11.14C700.16,263.52,697,259.89,690.46,257.32ZM459.19,288.15h8.25v52.33h-8.25v-2.77a15.87,15.87,0,0,1-10,3.37c-11.1,0-19.27-8.39-19.27-19.34s8.17-19.34,19.27-19.34a15.82,15.82,0,0,1,10,3.38Zm0,27.22a11.79,11.79,0,0,0-10-5.1c-6.37,0-10.87,5-10.87,11.47s4.5,11.47,10.87,11.47a11.79,11.79,0,0,0,10-5.1ZM594.5,278.85h8.25V226.51H594.5Zm58.3-38.09a15.32,15.32,0,0,0-12.38,5.78c-2.46-3.68-6.44-5.78-11.69-5.78a12.66,12.66,0,0,0-9.67,4.13v-3.53h-8.25v37.49h8.25V255c1.35-4.12,4.42-6.38,8.1-6.38,5.4,0,7.8,4.35,7.8,8.4v21.82h8.24v-22a14.47,14.47,0,0,0-.07-1.73c1.42-4.26,4.42-6.52,8.17-6.52,5.4,0,7.72,4.35,7.72,8.4v21.82h8.25v-22C667.27,247.21,662,240.76,652.8,240.76ZM345.25,252.21l-3.94-1.68c-5.09-2-7.58-4.33-7.58-7.42,0-3.3,3.59-5.22,7-5.22a10.51,10.51,0,0,1,8.49,3.81l5.57-5a17.66,17.66,0,0,0-14.08-6.12c-7.73,0-15.1,5-15.1,12.65,0,6.18,3.79,10.75,11.45,13.92l4,1.62c5,2.08,7.69,4.16,7.69,7.73,0,2.94-3.18,5.71-8.12,5.47a15.85,15.85,0,0,1-10.94-5.63l-6.22,5.33c4.29,4.35,9.75,7.74,17.23,7.74,10.84,0,16.19-6.92,16.19-13.58S352.19,255,345.25,252.21Zm-.48,66.61-3.14-1.28c-4.88-1.88-5.44-3.7-5.44-4.92,0-2,2.39-3.33,4.7-3.33A7.74,7.74,0,0,1,347,312.1l.55.57,5.51-4.76-.55-.59a14.84,14.84,0,0,0-11.61-5c-6.26,0-12.73,3.9-12.73,10.42,0,5,3.21,8.81,9.54,11.33l3.16,1.23c4,1.62,5.55,3,5.55,5.15,0,1.66-1.92,3.38-5.11,3.38h-.43a12.18,12.18,0,0,1-8.25-3.84l-.54-.63-5.88,5.09.66.61c4.47,4.05,8.76,6,14,6,8.92,0,13.58-5.6,13.58-11.13C354.46,325,351.29,321.39,344.77,318.82Zm27.67-24.66h-8.25V303h-6.11v7.35h6.11v18.74c0,7.12,4.27,11.39,11.47,11.39h6.15v-7.57h-4.05c-4.27,0-5.32-1.72-5.32-5.55v-17h9.37V303h-9.37Zm52.13-34.05a19.42,19.42,0,1,1-19.42-19.35A19,19,0,0,1,424.57,260.11Zm-8.47,0c0-6.53-4.58-11.48-11-11.48s-10.94,5-10.94,11.48,4.49,11.47,10.94,11.47S416.1,266.63,416.1,260.11ZM415.05,303h8.25v37.48h-8.25v-2.77A15.88,15.88,0,0,1,405,341.08a19.34,19.34,0,0,1,0-38.68,15.83,15.83,0,0,1,10.05,3.38Zm0,12.37a11.79,11.79,0,0,0-10-5.1c-6.38,0-10.88,5-10.88,11.47s4.5,11.47,10.88,11.47a11.79,11.79,0,0,0,10-5.1Zm-42.61-82.84h-8.25v8.83h-6.11v7.35h6.11v18.74c0,7.13,4.27,11.4,11.47,11.4h6.15v-7.57h-4.05c-4.27,0-5.32-1.73-5.32-5.55v-17h9.37v-7.35h-9.37Z" transform="translate(-135.25 -196.15)"/>
</svg>